<svg width="116" height="196" viewBox="0 0 116 196" fill="none" xmlns="http://www.w3.org/2000/svg">
<g filter="url(#filter0_i_14007_2340)">
<path d="M0 26C0 17.1634 7.16344 10 16 10H100C108.837 10 116 17.1634 116 26V180C116 188.837 108.837 196 100 196H16C7.16345 196 0 188.837 0 180V26Z" fill="url(#paint0_radial_14007_2340)"/>
<path d="M16 11H100C108.284 11 115 17.7157 115 26V180C115 188.284 108.284 195 100 195H16C7.71573 195 1 188.284 1 180V26C1 17.7157 7.71573 11 16 11Z" stroke="white" stroke-width="2"/>
<path d="M36.2944 58V56.608C37.4144 55.6907 38.3477 54.8907 39.0944 54.208C39.8517 53.5253 40.4544 52.9173 40.9024 52.384C41.3504 51.8507 41.6704 51.3653 41.8624 50.928C42.0544 50.4907 42.1504 50.0533 42.1504 49.616C42.1504 49.0187 41.9744 48.5547 41.6224 48.224C41.281 47.8827 40.8064 47.712 40.1984 47.712C39.569 47.712 39.057 47.8987 38.6624 48.272C38.2677 48.6347 38.0224 49.152 37.9264 49.824H36.1984C36.305 48.768 36.7157 47.92 37.4304 47.28C38.1557 46.64 39.1104 46.32 40.2944 46.32C41.425 46.32 42.3157 46.6187 42.9664 47.216C43.6277 47.8133 43.9584 48.6347 43.9584 49.68C43.9584 50.2133 43.857 50.7467 43.6544 51.28C43.4624 51.8027 43.1424 52.352 42.6944 52.928C42.2464 53.4933 41.6437 54.1227 40.8864 54.816C40.1397 55.4987 39.2117 56.2773 38.1024 57.152L37.7024 56.608H44.1664V58H36.2944ZM45.4798 58V56.016H47.4478V58H45.4798ZM53.001 58.16C52.073 58.16 51.257 57.9093 50.553 57.408C49.849 56.896 49.2997 56.192 48.905 55.296C48.5103 54.3893 48.313 53.3547 48.313 52.192C48.313 51.0293 48.5103 50.0107 48.905 49.136C49.2997 48.2507 49.849 47.5627 50.553 47.072C51.257 46.5707 52.073 46.32 53.001 46.32C53.929 46.32 54.7397 46.5707 55.433 47.072C56.137 47.5627 56.6863 48.2507 57.081 49.136C57.4757 50.0107 57.673 51.0293 57.673 52.192C57.673 53.3653 57.4757 54.4 57.081 55.296C56.6863 56.192 56.137 56.896 55.433 57.408C54.729 57.9093 53.9183 58.16 53.001 58.16ZM53.001 56.704C53.609 56.704 54.1263 56.5173 54.553 56.144C54.9797 55.76 55.2997 55.232 55.513 54.56C55.737 53.8773 55.849 53.0827 55.849 52.176C55.849 51.28 55.737 50.5013 55.513 49.84C55.2997 49.1787 54.9797 48.672 54.553 48.32C54.137 47.9573 53.6197 47.776 53.001 47.776C52.3717 47.776 51.8437 47.9573 51.417 48.32C51.001 48.6827 50.681 49.1947 50.457 49.856C50.2437 50.5067 50.137 51.28 50.137 52.176C50.137 53.0827 50.249 53.8773 50.473 54.56C50.697 55.2427 51.017 55.7707 51.433 56.144C51.8597 56.5173 52.3823 56.704 53.001 56.704ZM63.9541 58.16C63.0261 58.16 62.2101 57.9093 61.5061 57.408C60.8021 56.896 60.2528 56.192 59.8581 55.296C59.4635 54.3893 59.2661 53.3547 59.2661 52.192C59.2661 51.0293 59.4635 50.0107 59.8581 49.136C60.2528 48.2507 60.8021 47.5627 61.5061 47.072C62.2101 46.5707 63.0261 46.32 63.9541 46.32C64.8821 46.32 65.6928 46.5707 66.3861 47.072C67.0901 47.5627 67.6395 48.2507 68.0341 49.136C68.4288 50.0107 68.6261 51.0293 68.6261 52.192C68.6261 53.3653 68.4288 54.4 68.0341 55.296C67.6395 56.192 67.0901 56.896 66.3861 57.408C65.6821 57.9093 64.8715 58.16 63.9541 58.16ZM63.9541 56.704C64.5621 56.704 65.0795 56.5173 65.5061 56.144C65.9328 55.76 66.2528 55.232 66.4661 54.56C66.6901 53.8773 66.8021 53.0827 66.8021 52.176C66.8021 51.28 66.6901 50.5013 66.4661 49.84C66.2528 49.1787 65.9328 48.672 65.5061 48.32C65.0901 47.9573 64.5728 47.776 63.9541 47.776C63.3248 47.776 62.7968 47.9573 62.3701 48.32C61.9541 48.6827 61.6341 49.1947 61.4101 49.856C61.1968 50.5067 61.0901 51.28 61.0901 52.176C61.0901 53.0827 61.2021 53.8773 61.4261 54.56C61.6501 55.2427 61.9701 55.7707 62.3861 56.144C62.8128 56.5173 63.3355 56.704 63.9541 56.704ZM74.9073 58.16C73.9793 58.16 73.1633 57.9093 72.4593 57.408C71.7553 56.896 71.2059 56.192 70.8113 55.296C70.4166 54.3893 70.2193 53.3547 70.2193 52.192C70.2193 51.0293 70.4166 50.0107 70.8113 49.136C71.2059 48.2507 71.7553 47.5627 72.4593 47.072C73.1633 46.5707 73.9793 46.32 74.9073 46.32C75.8353 46.32 76.6459 46.5707 77.3393 47.072C78.0433 47.5627 78.5926 48.2507 78.9873 49.136C79.3819 50.0107 79.5793 51.0293 79.5793 52.192C79.5793 53.3653 79.3819 54.4 78.9873 55.296C78.5926 56.192 78.0433 56.896 77.3393 57.408C76.6353 57.9093 75.8246 58.16 74.9073 58.16ZM74.9073 56.704C75.5153 56.704 76.0326 56.5173 76.4593 56.144C76.8859 55.76 77.2059 55.232 77.4193 54.56C77.6433 53.8773 77.7552 53.0827 77.7552 52.176C77.7552 51.28 77.6433 50.5013 77.4193 49.84C77.2059 49.1787 76.8859 48.672 76.4593 48.32C76.0433 47.9573 75.5259 47.776 74.9073 47.776C74.2779 47.776 73.7499 47.9573 73.3233 48.32C72.9073 48.6827 72.5873 49.1947 72.3633 49.856C72.1499 50.5067 72.0433 51.28 72.0433 52.176C72.0433 53.0827 72.1553 53.8773 72.3793 54.56C72.6033 55.2427 72.9233 55.7707 73.3393 56.144C73.7659 56.5173 74.2886 56.704 74.9073 56.704Z" fill="white" fill-opacity="0.9"/>
<path d="M35.7344 53.184H80.2673V53.792H35.7344V53.184Z" fill="white" fill-opacity="0.9"/>
<path d="M27.3954 93.32C25.774 93.32 24.3127 93.032 23.0114 92.456C21.7314 91.8587 20.686 90.9947 19.8754 89.864C19.086 88.712 18.6274 87.3147 18.4994 85.672H23.3954C23.566 86.9947 23.9714 87.976 24.6114 88.616C25.2514 89.2347 26.1154 89.544 27.2034 89.544C28.142 89.544 28.9207 89.2667 29.5394 88.712C30.1794 88.1573 30.4994 87.3467 30.4994 86.28C30.4994 85.256 30.19 84.4347 29.5714 83.816C28.974 83.176 27.95 82.856 26.4994 82.856H24.4514V79.144H26.4034C27.662 79.144 28.5687 78.8667 29.1234 78.312C29.678 77.7573 29.9554 77.0533 29.9554 76.2C29.9554 75.3893 29.742 74.728 29.3154 74.216C28.8887 73.6827 28.1634 73.416 27.1394 73.416C26.2647 73.416 25.5074 73.6827 24.8674 74.216C24.2274 74.7493 23.8327 75.56 23.6834 76.648H18.7554C18.9474 75.1973 19.406 73.9493 20.1314 72.904C20.8567 71.8587 21.8274 71.0587 23.0434 70.504C24.2594 69.928 25.678 69.64 27.2994 69.64C28.9207 69.64 30.3074 69.896 31.4594 70.408C32.6327 70.8987 33.5394 71.6027 34.1794 72.52C34.8194 73.4373 35.1394 74.536 35.1394 75.816C35.1394 76.8827 34.894 77.8213 34.4034 78.632C33.9127 79.4427 33.294 80.072 32.5474 80.52C31.822 80.968 31.086 81.192 30.3394 81.192L30.3074 80.52C31.438 80.52 32.4087 80.7973 33.2194 81.352C34.03 81.8853 34.6487 82.6107 35.0754 83.528C35.502 84.424 35.7154 85.4267 35.7154 86.536C35.7154 87.9227 35.3527 89.128 34.6274 90.152C33.902 91.176 32.91 91.9653 31.6514 92.52C30.3927 93.0533 28.974 93.32 27.3954 93.32ZM37.4356 93V87.72H42.7156V93H37.4356ZM53.1454 93.32C51.524 93.32 50.0627 93.032 48.7614 92.456C47.4814 91.8587 46.436 90.9947 45.6254 89.864C44.836 88.712 44.3774 87.3147 44.2494 85.672H49.1454C49.316 86.9947 49.7214 87.976 50.3614 88.616C51.0014 89.2347 51.8654 89.544 52.9534 89.544C53.892 89.544 54.6707 89.2667 55.2894 88.712C55.9294 88.1573 56.2494 87.3467 56.2494 86.28C56.2494 85.256 55.94 84.4347 55.3214 83.816C54.724 83.176 53.7 82.856 52.2494 82.856H50.2014V79.144H52.1534C53.412 79.144 54.3187 78.8667 54.8734 78.312C55.428 77.7573 55.7054 77.0533 55.7054 76.2C55.7054 75.3893 55.492 74.728 55.0654 74.216C54.6387 73.6827 53.9134 73.416 52.8894 73.416C52.0147 73.416 51.2574 73.6827 50.6174 74.216C49.9774 74.7493 49.5827 75.56 49.4334 76.648H44.5054C44.6974 75.1973 45.156 73.9493 45.8814 72.904C46.6067 71.8587 47.5774 71.0587 48.7934 70.504C50.0094 69.928 51.428 69.64 53.0494 69.64C54.6707 69.64 56.0574 69.896 57.2094 70.408C58.3827 70.8987 59.2894 71.6027 59.9294 72.52C60.5694 73.4373 60.8894 74.536 60.8894 75.816C60.8894 76.8827 60.644 77.8213 60.1534 78.632C59.6627 79.4427 59.044 80.072 58.2974 80.52C57.572 80.968 56.836 81.192 56.0894 81.192L56.0574 80.52C57.188 80.52 58.1587 80.7973 58.9694 81.352C59.78 81.8853 60.3987 82.6107 60.8254 83.528C61.252 84.424 61.4654 85.4267 61.4654 86.536C61.4654 87.9227 61.1027 89.128 60.3774 90.152C59.652 91.176 58.66 91.9653 57.4014 92.52C56.1427 93.0533 54.724 93.32 53.1454 93.32ZM66.5336 93C66.8536 89.352 67.7496 85.8427 69.2216 82.472C70.715 79.08 72.603 75.9653 74.8856 73.128V73.736H62.5336V69.96H79.5256V73.48C78.075 75.5493 76.8056 77.6293 75.7176 79.72C74.6296 81.8107 73.755 83.9547 73.0936 86.152C72.4323 88.328 72.0056 90.6107 71.8136 93H66.5336ZM88.8299 93.32C86.4619 93.32 84.5205 92.712 83.0059 91.496C81.4912 90.28 80.5525 88.5733 80.1899 86.376H85.0859C85.2565 87.3573 85.6832 88.136 86.3659 88.712C87.0485 89.2667 87.8272 89.544 88.7019 89.544C89.7045 89.544 90.5045 89.2027 91.1019 88.52C91.7205 87.816 92.0299 86.76 92.0299 85.352C92.0299 84.008 91.7419 82.984 91.1659 82.28C90.5899 81.5547 89.8005 81.192 88.7979 81.192C88.2219 81.192 87.6779 81.3307 87.1659 81.608C86.6539 81.864 86.2272 82.2907 85.8859 82.888H81.4059L82.5899 69.96H95.8379V73.736H84.3179L86.9419 73.384L86.3659 80.584L84.7659 80.36C85.3205 79.4853 85.9925 78.824 86.7819 78.376C87.5925 77.9067 88.6165 77.672 89.8539 77.672C91.3259 77.672 92.6165 77.992 93.7259 78.632C94.8352 79.272 95.6992 80.168 96.3179 81.32C96.9365 82.472 97.2459 83.8373 97.2459 85.416C97.2459 87.08 96.8939 88.4987 96.1899 89.672C95.4859 90.8453 94.5045 91.752 93.2459 92.392C91.9872 93.0107 90.5152 93.32 88.8299 93.32Z" fill="white"/>
<path d="M41.474 115.14C41.1193 115.14 40.7787 115.112 40.452 115.056C40.1253 115.009 39.8873 114.949 39.738 114.874V113.614C39.9433 113.698 40.1907 113.768 40.48 113.824C40.7693 113.88 41.0633 113.908 41.362 113.908C41.978 113.908 42.44 113.782 42.748 113.53C43.0653 113.269 43.224 112.858 43.224 112.298V104.92H44.708V112.354C44.708 113.287 44.4327 113.987 43.882 114.454C43.3313 114.911 42.5287 115.14 41.474 115.14ZM49.7543 115.14C49.0357 115.14 48.401 114.981 47.8503 114.664C47.309 114.347 46.8843 113.908 46.5763 113.348C46.2683 112.788 46.1143 112.144 46.1143 111.416C46.1143 110.679 46.2637 110.035 46.5623 109.484C46.8703 108.924 47.2997 108.49 47.8503 108.182C48.401 107.874 49.031 107.72 49.7403 107.72C50.431 107.72 51.0283 107.869 51.5323 108.168C52.0457 108.457 52.4377 108.863 52.7083 109.386C52.9883 109.909 53.1283 110.529 53.1283 111.248C53.1283 111.36 53.1237 111.467 53.1143 111.57C53.1143 111.663 53.105 111.761 53.0863 111.864H47.0943V110.772H52.0643L51.7003 111.206C51.7003 110.441 51.5277 109.857 51.1823 109.456C50.837 109.055 50.3563 108.854 49.7403 108.854C49.0777 108.854 48.5503 109.083 48.1583 109.54C47.7757 109.988 47.5843 110.613 47.5843 111.416C47.5843 112.228 47.7757 112.863 48.1583 113.32C48.5503 113.777 49.0917 114.006 49.7823 114.006C50.2023 114.006 50.5663 113.922 50.8743 113.754C51.1823 113.577 51.411 113.32 51.5603 112.984H52.9323C52.699 113.656 52.3023 114.183 51.7423 114.566C51.1917 114.949 50.529 115.14 49.7543 115.14ZM57.5327 115.14C56.702 115.14 56.0907 114.949 55.6987 114.566C55.316 114.174 55.1247 113.6 55.1247 112.844V106.222L56.5667 105.676V112.858C56.5667 113.231 56.6647 113.507 56.8607 113.684C57.0567 113.861 57.374 113.95 57.8127 113.95C57.9807 113.95 58.13 113.936 58.2607 113.908C58.3913 113.88 58.5033 113.847 58.5967 113.81V114.986C58.494 115.033 58.3493 115.07 58.1627 115.098C57.976 115.126 57.766 115.14 57.5327 115.14ZM53.6967 109.022V107.86H58.5967V109.022H53.6967ZM62.8937 115.14C62.1657 115.14 61.5263 114.981 60.9757 114.664C60.425 114.337 59.9957 113.894 59.6877 113.334C59.3797 112.765 59.2257 112.121 59.2257 111.402C59.2257 110.674 59.3797 110.035 59.6877 109.484C60.005 108.933 60.4343 108.504 60.9757 108.196C61.5263 107.879 62.1657 107.72 62.8937 107.72C63.631 107.72 64.275 107.879 64.8257 108.196C65.3763 108.504 65.801 108.933 66.0997 109.484C66.4077 110.035 66.5617 110.674 66.5617 111.402C66.5617 112.121 66.4077 112.765 66.0997 113.334C65.801 113.894 65.3763 114.337 64.8257 114.664C64.275 114.981 63.631 115.14 62.8937 115.14ZM62.8937 113.95C63.3323 113.95 63.7103 113.843 64.0277 113.628C64.3543 113.413 64.611 113.115 64.7977 112.732C64.9843 112.349 65.0777 111.901 65.0777 111.388C65.0777 110.623 64.8723 110.021 64.4617 109.582C64.0603 109.134 63.5377 108.91 62.8937 108.91C62.259 108.91 61.7363 109.134 61.3257 109.582C60.9243 110.03 60.7237 110.632 60.7237 111.388C60.7237 111.901 60.8123 112.349 60.9897 112.732C61.1763 113.115 61.433 113.413 61.7597 113.628C62.0957 113.843 62.4737 113.95 62.8937 113.95ZM68.0572 115V107.86H69.4432V109.54H69.5132V115H68.0572ZM73.1252 115V110.408C73.1252 109.913 72.9992 109.545 72.7472 109.302C72.5045 109.059 72.1405 108.938 71.6552 108.938C71.2352 108.938 70.8618 109.031 70.5352 109.218C70.2178 109.405 69.9658 109.661 69.7792 109.988C69.6018 110.315 69.5132 110.702 69.5132 111.15L69.3312 109.442C69.5645 108.91 69.9238 108.49 70.4092 108.182C70.8945 107.874 71.4592 107.72 72.1032 107.72C72.8685 107.72 73.4705 107.935 73.9092 108.364C74.3478 108.793 74.5672 109.363 74.5672 110.072V115H73.1252Z" fill="white"/>
<line x1="17.5" y1="133.5" x2="98.5" y2="133.5" stroke="white" stroke-opacity="0.1"/>
<path d="M30.3536 164.16C30.1296 164.16 29.8843 164.144 29.6176 164.112C29.351 164.091 29.111 164.053 28.8976 164V159.104L27.3456 159.632V158.24L28.8976 157.712V156.72L27.3456 157.248V155.856L28.8976 155.328V152.576H31.2336V154.528L33.7296 153.664V155.056L31.2336 155.92V156.912L33.7296 156.048V157.424L31.2336 158.288V162.208C31.9056 162.091 32.4283 161.867 32.8016 161.536C33.1856 161.205 33.4523 160.773 33.6016 160.24C33.7616 159.707 33.8416 159.093 33.8416 158.4H36.0336C36.0336 159.136 35.9376 159.851 35.7456 160.544C35.5536 161.227 35.239 161.84 34.8016 162.384C34.375 162.928 33.7936 163.36 33.0576 163.68C32.3323 164 31.431 164.16 30.3536 164.16ZM38.8059 164C38.9659 162.176 39.4139 160.421 40.1499 158.736C40.8965 157.04 41.8405 155.483 42.9819 154.064V154.368H36.8059V152.48H45.3019V154.24C44.5765 155.275 43.9419 156.315 43.3979 157.36C42.8539 158.405 42.4165 159.477 42.0859 160.576C41.7552 161.664 41.5419 162.805 41.4459 164H38.8059ZM50.2189 164.16C49.3869 164.16 48.6775 164.011 48.0909 163.712C47.5149 163.403 47.0615 162.981 46.7309 162.448C46.4002 161.904 46.1922 161.28 46.1069 160.576H48.5549C48.6082 161.141 48.7789 161.568 49.0669 161.856C49.3549 162.133 49.7655 162.272 50.2989 162.272C50.6829 162.272 51.0029 162.197 51.2589 162.048C51.5255 161.888 51.7335 161.648 51.8829 161.328C52.0429 160.997 52.1549 160.571 52.2189 160.048C52.2935 159.525 52.3309 158.891 52.3309 158.144V157.104L52.9869 157.12C52.8695 157.632 52.6615 158.075 52.3629 158.448C52.0642 158.821 51.6855 159.109 51.2269 159.312C50.7789 159.515 50.2615 159.616 49.6749 159.616C48.9389 159.616 48.2882 159.467 47.7229 159.168C47.1682 158.859 46.7309 158.437 46.4109 157.904C46.0909 157.36 45.9309 156.736 45.9309 156.032C45.9309 155.285 46.1122 154.635 46.4749 154.08C46.8375 153.525 47.3442 153.093 47.9949 152.784C48.6455 152.475 49.4029 152.32 50.2669 152.32C51.8029 152.32 52.9815 152.816 53.8029 153.808C54.6349 154.789 55.0509 156.213 55.0509 158.08C55.0509 159.339 54.8589 160.427 54.4749 161.344C54.1015 162.251 53.5522 162.949 52.8269 163.44C52.1122 163.92 51.2429 164.16 50.2189 164.16ZM50.4909 157.76C51.0882 157.76 51.5362 157.6 51.8349 157.28C52.1335 156.96 52.2829 156.555 52.2829 156.064C52.2829 155.723 52.2135 155.413 52.0749 155.136C51.9469 154.848 51.7495 154.624 51.4829 154.464C51.2162 154.293 50.8855 154.208 50.4909 154.208C49.9042 154.208 49.4509 154.384 49.1309 154.736C48.8109 155.077 48.6509 155.499 48.6509 156C48.6509 156.501 48.8109 156.923 49.1309 157.264C49.4509 157.595 49.9042 157.76 50.4909 157.76ZM60.2814 164.16C59.4494 164.16 58.74 164.011 58.1534 163.712C57.5774 163.403 57.124 162.981 56.7934 162.448C56.4627 161.904 56.2547 161.28 56.1694 160.576H58.6174C58.6707 161.141 58.8414 161.568 59.1294 161.856C59.4174 162.133 59.828 162.272 60.3614 162.272C60.7454 162.272 61.0654 162.197 61.3214 162.048C61.588 161.888 61.796 161.648 61.9454 161.328C62.1054 160.997 62.2174 160.571 62.2814 160.048C62.356 159.525 62.3934 158.891 62.3934 158.144V157.104L63.0494 157.12C62.932 157.632 62.724 158.075 62.4254 158.448C62.1267 158.821 61.748 159.109 61.2894 159.312C60.8414 159.515 60.324 159.616 59.7374 159.616C59.0014 159.616 58.3507 159.467 57.7854 159.168C57.2307 158.859 56.7934 158.437 56.4734 157.904C56.1534 157.36 55.9934 156.736 55.9934 156.032C55.9934 155.285 56.1747 154.635 56.5374 154.08C56.9 153.525 57.4067 153.093 58.0574 152.784C58.708 152.475 59.4654 152.32 60.3294 152.32C61.8654 152.32 63.044 152.816 63.8654 153.808C64.6974 154.789 65.1134 156.213 65.1134 158.08C65.1134 159.339 64.9214 160.427 64.5374 161.344C64.164 162.251 63.6147 162.949 62.8894 163.44C62.1747 163.92 61.3054 164.16 60.2814 164.16ZM60.5534 157.76C61.1507 157.76 61.5987 157.6 61.8974 157.28C62.196 156.96 62.3454 156.555 62.3454 156.064C62.3454 155.723 62.276 155.413 62.1374 155.136C62.0094 154.848 61.812 154.624 61.5454 154.464C61.2787 154.293 60.948 154.208 60.5534 154.208C59.9667 154.208 59.5134 154.384 59.1934 154.736C58.8734 155.077 58.7134 155.499 58.7134 156C58.7134 156.501 58.8734 156.923 59.1934 157.264C59.5134 157.595 59.9667 157.76 60.5534 157.76ZM65.7576 166.688V165.52C66.259 165.371 66.5843 165.152 66.7336 164.864C66.883 164.576 66.9576 164.203 66.9576 163.744L67.9336 164H65.7256V161.36H68.3656V163.232C68.3656 164.075 68.1683 164.8 67.7736 165.408C67.379 166.016 66.707 166.443 65.7576 166.688ZM73.3595 164.16C72.5275 164.16 71.8182 164.011 71.2315 163.712C70.6555 163.403 70.2022 162.981 69.8715 162.448C69.5408 161.904 69.3328 161.28 69.2475 160.576H71.6955C71.7488 161.141 71.9195 161.568 72.2075 161.856C72.4955 162.133 72.9062 162.272 73.4395 162.272C73.8235 162.272 74.1435 162.197 74.3995 162.048C74.6662 161.888 74.8742 161.648 75.0235 161.328C75.1835 160.997 75.2955 160.571 75.3595 160.048C75.4342 159.525 75.4715 158.891 75.4715 158.144V157.104L76.1275 157.12C76.0102 157.632 75.8022 158.075 75.5035 158.448C75.2048 158.821 74.8262 159.109 74.3675 159.312C73.9195 159.515 73.4022 159.616 72.8155 159.616C72.0795 159.616 71.4288 159.467 70.8635 159.168C70.3088 158.859 69.8715 158.437 69.5515 157.904C69.2315 157.36 69.0715 156.736 69.0715 156.032C69.0715 155.285 69.2528 154.635 69.6155 154.08C69.9782 153.525 70.4848 153.093 71.1355 152.784C71.7862 152.475 72.5435 152.32 73.4075 152.32C74.9435 152.32 76.1222 152.816 76.9435 153.808C77.7755 154.789 78.1915 156.213 78.1915 158.08C78.1915 159.339 77.9995 160.427 77.6155 161.344C77.2422 162.251 76.6928 162.949 75.9675 163.44C75.2528 163.92 74.3835 164.16 73.3595 164.16ZM73.6315 157.76C74.2288 157.76 74.6768 157.6 74.9755 157.28C75.2742 156.96 75.4235 156.555 75.4235 156.064C75.4235 155.723 75.3542 155.413 75.2155 155.136C75.0875 154.848 74.8902 154.624 74.6235 154.464C74.3568 154.293 74.0262 154.208 73.6315 154.208C73.0448 154.208 72.5915 154.384 72.2715 154.736C71.9515 155.077 71.7915 155.499 71.7915 156C71.7915 156.501 71.9515 156.923 72.2715 157.264C72.5915 157.595 73.0448 157.76 73.6315 157.76ZM83.422 164.16C82.59 164.16 81.8807 164.011 81.294 163.712C80.718 163.403 80.2647 162.981 79.934 162.448C79.6033 161.904 79.3953 161.28 79.31 160.576H81.758C81.8113 161.141 81.982 161.568 82.27 161.856C82.558 162.133 82.9687 162.272 83.502 162.272C83.886 162.272 84.206 162.197 84.462 162.048C84.7287 161.888 84.9367 161.648 85.086 161.328C85.246 160.997 85.358 160.571 85.422 160.048C85.4967 159.525 85.534 158.891 85.534 158.144V157.104L86.19 157.12C86.0727 157.632 85.8647 158.075 85.566 158.448C85.2673 158.821 84.8887 159.109 84.43 159.312C83.982 159.515 83.4647 159.616 82.878 159.616C82.142 159.616 81.4913 159.467 80.926 159.168C80.3713 158.859 79.934 158.437 79.614 157.904C79.294 157.36 79.134 156.736 79.134 156.032C79.134 155.285 79.3153 154.635 79.678 154.08C80.0407 153.525 80.5473 153.093 81.198 152.784C81.8487 152.475 82.606 152.32 83.47 152.32C85.006 152.32 86.1847 152.816 87.006 153.808C87.838 154.789 88.254 156.213 88.254 158.08C88.254 159.339 88.062 160.427 87.678 161.344C87.3047 162.251 86.7553 162.949 86.03 163.44C85.3153 163.92 84.446 164.16 83.422 164.16ZM83.694 157.76C84.2913 157.76 84.7393 157.6 85.038 157.28C85.3367 156.96 85.486 156.555 85.486 156.064C85.486 155.723 85.4167 155.413 85.278 155.136C85.15 154.848 84.9527 154.624 84.686 154.464C84.4193 154.293 84.0887 154.208 83.694 154.208C83.1073 154.208 82.654 154.384 82.334 154.736C82.014 155.077 81.854 155.499 81.854 156C81.854 156.501 82.014 156.923 82.334 157.264C82.654 157.595 83.1073 157.76 83.694 157.76Z" fill="white"/>
<path d="M19.324 181V180.016H21.904C22.392 180.016 22.772 179.884 23.044 179.62C23.324 179.356 23.464 178.996 23.464 178.54C23.464 178.06 23.316 177.676 23.02 177.388C22.732 177.1 22.336 176.956 21.832 176.956H19.324V175.996H21.712C22.2 175.996 22.576 175.88 22.84 175.648C23.112 175.408 23.248 175.068 23.248 174.628C23.248 174.212 23.12 173.896 22.864 173.68C22.616 173.456 22.248 173.344 21.76 173.344H19.324V172.36H21.952C22.736 172.36 23.36 172.552 23.824 172.936C24.288 173.312 24.52 173.828 24.52 174.484C24.52 174.9 24.424 175.268 24.232 175.588C24.048 175.9 23.792 176.144 23.464 176.32C23.136 176.488 22.764 176.572 22.348 176.572L22.408 176.32C22.856 176.32 23.256 176.424 23.608 176.632C23.96 176.832 24.24 177.108 24.448 177.46C24.656 177.812 24.76 178.22 24.76 178.684C24.76 179.14 24.648 179.544 24.424 179.896C24.208 180.248 23.9 180.52 23.5 180.712C23.1 180.904 22.636 181 22.108 181H19.324ZM18.388 181V172.36H19.66V181H18.388ZM29.7969 181C29.7569 180.848 29.7289 180.68 29.7129 180.496C29.7049 180.312 29.7009 180.088 29.7009 179.824H29.6409V176.908C29.6409 176.516 29.5409 176.224 29.3409 176.032C29.1489 175.832 28.8409 175.732 28.4169 175.732C28.0089 175.732 27.6809 175.812 27.4329 175.972C27.1929 176.132 27.0529 176.36 27.0129 176.656H25.8249C25.8809 176.08 26.1409 175.62 26.6049 175.276C27.0689 174.932 27.6889 174.76 28.4649 174.76C29.2649 174.76 29.8649 174.948 30.2649 175.324C30.6649 175.692 30.8649 176.236 30.8649 176.956V179.824C30.8649 180.008 30.8769 180.196 30.9009 180.388C30.9249 180.58 30.9609 180.784 31.0089 181H29.7969ZM27.6849 181.12C27.0609 181.12 26.5649 180.968 26.1969 180.664C25.8289 180.352 25.6449 179.932 25.6449 179.404C25.6449 178.86 25.8369 178.432 26.2209 178.12C26.6129 177.8 27.1729 177.584 27.9009 177.472L29.9169 177.148V178.024L28.0929 178.312C27.6849 178.376 27.3769 178.484 27.1689 178.636C26.9689 178.788 26.8689 179.008 26.8689 179.296C26.8689 179.576 26.9609 179.788 27.1449 179.932C27.3369 180.068 27.6129 180.136 27.9729 180.136C28.4529 180.136 28.8489 180.02 29.1609 179.788C29.4809 179.556 29.6409 179.264 29.6409 178.912L29.7969 179.8C29.6529 180.224 29.3969 180.552 29.0289 180.784C28.6609 181.008 28.2129 181.12 27.6849 181.12ZM34.6934 181.12C33.8934 181.12 33.2574 180.944 32.7854 180.592C32.3134 180.24 32.0454 179.744 31.9814 179.104H33.1334C33.1894 179.456 33.3494 179.728 33.6134 179.92C33.8854 180.104 34.2534 180.196 34.7174 180.196C35.1254 180.196 35.4374 180.124 35.6534 179.98C35.8694 179.836 35.9774 179.632 35.9774 179.368C35.9774 179.176 35.9134 179.016 35.7854 178.888C35.6654 178.752 35.4254 178.64 35.0654 178.552L34.0814 178.324C33.4654 178.172 33.0054 177.948 32.7014 177.652C32.4054 177.348 32.2574 176.976 32.2574 176.536C32.2574 175.984 32.4614 175.552 32.8694 175.24C33.2854 174.92 33.8534 174.76 34.5734 174.76C35.2854 174.76 35.8574 174.92 36.2894 175.24C36.7294 175.56 36.9774 176.008 37.0334 176.584H35.8814C35.8334 176.296 35.6934 176.076 35.4614 175.924C35.2374 175.764 34.9294 175.684 34.5374 175.684C34.1694 175.684 33.8854 175.752 33.6854 175.888C33.4934 176.016 33.3974 176.196 33.3974 176.428C33.3974 176.62 33.4694 176.78 33.6134 176.908C33.7654 177.036 34.0134 177.144 34.3574 177.232L35.3654 177.484C35.9494 177.628 36.3894 177.864 36.6854 178.192C36.9814 178.512 37.1294 178.9 37.1294 179.356C37.1294 179.908 36.9134 180.34 36.4814 180.652C36.0574 180.964 35.4614 181.12 34.6934 181.12ZM34.5494 183.58C34.1094 183.58 33.7534 183.48 33.4814 183.28C33.2174 183.088 33.0774 182.824 33.0614 182.488H33.9014C33.9174 182.624 33.9894 182.724 34.1174 182.788C34.2454 182.852 34.3934 182.884 34.5614 182.884C34.7134 182.884 34.8454 182.852 34.9574 182.788C35.0694 182.732 35.1254 182.648 35.1254 182.536C35.1254 182.408 35.0494 182.3 34.8974 182.212C34.7454 182.132 34.4534 182.084 34.0214 182.068L34.3334 180.856H35.1254L34.9454 181.48C35.3214 181.56 35.5894 181.692 35.7494 181.876C35.9174 182.068 36.0014 182.288 36.0014 182.536C36.0014 182.856 35.8694 183.108 35.6054 183.292C35.3494 183.484 34.9974 183.58 34.5494 183.58ZM38.3096 181V174.88H39.5576V181H38.3096ZM41.3096 181V174.88H42.4976V176.32H42.5576V181H41.3096ZM45.6536 181V177.064C45.6536 176.64 45.5456 176.324 45.3296 176.116C45.1216 175.908 44.8096 175.804 44.3936 175.804C44.0336 175.804 43.7136 175.884 43.4336 176.044C43.1616 176.204 42.9456 176.424 42.7856 176.704C42.6336 176.984 42.5576 177.316 42.5576 177.7L42.4016 176.236C42.6016 175.78 42.9096 175.42 43.3256 175.156C43.7416 174.892 44.2256 174.76 44.7776 174.76C45.4336 174.76 45.9496 174.944 46.3256 175.312C46.7016 175.68 46.8896 176.168 46.8896 176.776V181H45.6536ZM52.3086 181C52.2686 180.848 52.2406 180.68 52.2246 180.496C52.2166 180.312 52.2126 180.088 52.2126 179.824H52.1526V176.908C52.1526 176.516 52.0526 176.224 51.8526 176.032C51.6606 175.832 51.3526 175.732 50.9286 175.732C50.5206 175.732 50.1926 175.812 49.9446 175.972C49.7046 176.132 49.5646 176.36 49.5246 176.656H48.3366C48.3926 176.08 48.6526 175.62 49.1166 175.276C49.5806 174.932 50.2006 174.76 50.9766 174.76C51.7766 174.76 52.3766 174.948 52.7766 175.324C53.1766 175.692 53.3766 176.236 53.3766 176.956V179.824C53.3766 180.008 53.3886 180.196 53.4126 180.388C53.4366 180.58 53.4726 180.784 53.5206 181H52.3086ZM50.1966 181.12C49.5726 181.12 49.0766 180.968 48.7086 180.664C48.3406 180.352 48.1566 179.932 48.1566 179.404C48.1566 178.86 48.3486 178.432 48.7326 178.12C49.1246 177.8 49.6846 177.584 50.4126 177.472L52.4286 177.148V178.024L50.6046 178.312C50.1966 178.376 49.8886 178.484 49.6806 178.636C49.4806 178.788 49.3806 179.008 49.3806 179.296C49.3806 179.576 49.4726 179.788 49.6566 179.932C49.8486 180.068 50.1246 180.136 50.4846 180.136C50.9646 180.136 51.3606 180.02 51.6726 179.788C51.9926 179.556 52.1526 179.264 52.1526 178.912L52.3086 179.8C52.1646 180.224 51.9086 180.552 51.5406 180.784C51.1726 181.008 50.7246 181.12 50.1966 181.12ZM57.4346 181V172.36H58.6826V181H57.4346ZM61.7786 181V177.064C61.7786 176.64 61.6706 176.324 61.4546 176.116C61.2466 175.908 60.9346 175.804 60.5186 175.804C60.1586 175.804 59.8386 175.884 59.5586 176.044C59.2866 176.204 59.0706 176.424 58.9106 176.704C58.7586 176.984 58.6826 177.316 58.6826 177.7L58.5266 176.236C58.7266 175.78 59.0346 175.42 59.4506 175.156C59.8666 174.892 60.3506 174.76 60.9026 174.76C61.5586 174.76 62.0746 174.944 62.4506 175.312C62.8266 175.68 63.0146 176.168 63.0146 176.776V181H61.7786ZM68.4336 181C68.3936 180.848 68.3656 180.68 68.3496 180.496C68.3416 180.312 68.3376 180.088 68.3376 179.824H68.2776V176.908C68.2776 176.516 68.1776 176.224 67.9776 176.032C67.7856 175.832 67.4776 175.732 67.0536 175.732C66.6456 175.732 66.3176 175.812 66.0696 175.972C65.8296 176.132 65.6896 176.36 65.6496 176.656H64.4616C64.5176 176.08 64.7776 175.62 65.2416 175.276C65.7056 174.932 66.3256 174.76 67.1016 174.76C67.9016 174.76 68.5016 174.948 68.9016 175.324C69.3016 175.692 69.5016 176.236 69.5016 176.956V179.824C69.5016 180.008 69.5136 180.196 69.5376 180.388C69.5616 180.58 69.5976 180.784 69.6456 181H68.4336ZM66.3216 181.12C65.6976 181.12 65.2016 180.968 64.8336 180.664C64.4656 180.352 64.2816 179.932 64.2816 179.404C64.2816 178.86 64.4736 178.432 64.8576 178.12C65.2496 177.8 65.8096 177.584 66.5376 177.472L68.5536 177.148V178.024L66.7296 178.312C66.3216 178.376 66.0136 178.484 65.8056 178.636C65.6056 178.788 65.5056 179.008 65.5056 179.296C65.5056 179.576 65.5976 179.788 65.7816 179.932C65.9736 180.068 66.2496 180.136 66.6096 180.136C67.0896 180.136 67.4856 180.02 67.7976 179.788C68.1176 179.556 68.2776 179.264 68.2776 178.912L68.4336 179.8C68.2896 180.224 68.0336 180.552 67.6656 180.784C67.2976 181.008 66.8496 181.12 66.3216 181.12ZM71.4618 181V174.172C71.4618 173.548 71.6378 173.072 71.9898 172.744C72.3418 172.408 72.8698 172.24 73.5738 172.24C73.7338 172.24 73.8658 172.248 73.9698 172.264C74.0738 172.28 74.1658 172.304 74.2458 172.336V173.296C74.1898 173.28 74.1138 173.264 74.0178 173.248C73.9298 173.232 73.8298 173.224 73.7178 173.224C73.3658 173.224 73.1098 173.312 72.9498 173.488C72.7898 173.656 72.7098 173.896 72.7098 174.208V181H71.4618ZM70.2858 175.876V174.88H74.1138V175.876H70.2858ZM78.0386 181.12C77.3266 181.12 76.8026 180.956 76.4666 180.628C76.1386 180.292 75.9746 179.8 75.9746 179.152V173.476L77.2106 173.008V179.164C77.2106 179.484 77.2946 179.72 77.4626 179.872C77.6306 180.024 77.9026 180.1 78.2786 180.1C78.4226 180.1 78.5506 180.088 78.6626 180.064C78.7746 180.04 78.8706 180.012 78.9506 179.98V180.988C78.8626 181.028 78.7386 181.06 78.5786 181.084C78.4186 181.108 78.2386 181.12 78.0386 181.12ZM74.7506 175.876V174.88H78.9506V175.876H74.7506ZM83.8907 181C83.8507 180.848 83.8227 180.68 83.8067 180.496C83.7987 180.312 83.7947 180.088 83.7947 179.824H83.7347V176.908C83.7347 176.516 83.6347 176.224 83.4347 176.032C83.2427 175.832 82.9347 175.732 82.5107 175.732C82.1027 175.732 81.7747 175.812 81.5267 175.972C81.2867 176.132 81.1467 176.36 81.1067 176.656H79.9187C79.9747 176.08 80.2347 175.62 80.6987 175.276C81.1627 174.932 81.7827 174.76 82.5587 174.76C83.3587 174.76 83.9587 174.948 84.3587 175.324C84.7587 175.692 84.9587 176.236 84.9587 176.956V179.824C84.9587 180.008 84.9707 180.196 84.9947 180.388C85.0187 180.58 85.0547 180.784 85.1027 181H83.8907ZM81.7787 181.12C81.1547 181.12 80.6587 180.968 80.2907 180.664C79.9227 180.352 79.7387 179.932 79.7387 179.404C79.7387 178.86 79.9307 178.432 80.3147 178.12C80.7067 177.8 81.2667 177.584 81.9947 177.472L84.0107 177.148V178.024L82.1867 178.312C81.7787 178.376 81.4707 178.484 81.2627 178.636C81.0627 178.788 80.9627 179.008 80.9627 179.296C80.9627 179.576 81.0547 179.788 81.2387 179.932C81.4307 180.068 81.7067 180.136 82.0667 180.136C82.5467 180.136 82.9427 180.02 83.2547 179.788C83.5747 179.556 83.7347 179.264 83.7347 178.912L83.8907 179.8C83.7467 180.224 83.4907 180.552 83.1227 180.784C82.7547 181.008 82.3067 181.12 81.7787 181.12ZM86.6494 181V172.36H87.8974V181H86.6494ZM89.6494 181V174.88H90.8974V181H89.6494ZM92.6494 181V172.204H93.8974V181H92.6494ZM96.6214 181L93.6094 177.82L96.5254 174.88H98.0974L94.7854 178.096L94.8454 177.532L98.2174 181H96.6214Z" fill="white" fill-opacity="0.8"/>
<g filter="url(#filter1_i_14007_2340)">
<path d="M27 11.5C27 5.14873 32.1487 0 38.5 0H76.5C82.8513 0 88 5.14873 88 11.5C88 17.8513 82.8513 23 76.5 23H38.5C32.1487 23 27 17.8513 27 11.5Z" fill="#5949E6"/>
<path d="M38.5 0.5H76.5C82.5751 0.5 87.5 5.42487 87.5 11.5C87.5 17.5751 82.5751 22.5 76.5 22.5H38.5C32.4249 22.5 27.5 17.5751 27.5 11.5C27.5 5.42487 32.4249 0.5 38.5 0.5Z" stroke="white"/>
<path d="M45.9224 14.164V8.92H46.7624V14.164H45.9224ZM43.8704 11.956V11.14H48.8024V11.956H43.8704ZM50.3567 16C50.4687 14.64 50.7847 13.296 51.3047 11.968C51.8327 10.632 52.6207 9.268 53.6687 7.876L53.7287 8.224H48.6767V7.36H54.5087V8.08C53.8687 9.016 53.3367 9.92 52.9127 10.792C52.4967 11.664 52.1727 12.528 51.9407 13.384C51.7087 14.232 51.5607 15.104 51.4967 16H50.3567ZM58.4901 16.12C57.8101 16.12 57.2141 15.932 56.7021 15.556C56.1981 15.172 55.8021 14.644 55.5141 13.972C55.2341 13.292 55.0941 12.516 55.0941 11.644C55.0941 10.772 55.2341 10.008 55.5141 9.352C55.7941 8.688 56.1901 8.172 56.7021 7.804C57.2141 7.428 57.8101 7.24 58.4901 7.24C59.1701 7.24 59.7621 7.428 60.2661 7.804C60.7781 8.172 61.1741 8.688 61.4541 9.352C61.7421 10.008 61.8861 10.772 61.8861 11.644C61.8861 12.524 61.7421 13.3 61.4541 13.972C61.1741 14.644 60.7781 15.172 60.2661 15.556C59.7621 15.932 59.1701 16.12 58.4901 16.12ZM58.4901 15.256C58.9781 15.256 59.3941 15.112 59.7381 14.824C60.0821 14.528 60.3461 14.112 60.5301 13.576C60.7141 13.032 60.8061 12.384 60.8061 11.632C60.8061 10.888 60.7141 10.252 60.5301 9.724C60.3541 9.196 60.0941 8.796 59.7501 8.524C59.4061 8.244 58.9861 8.104 58.4901 8.104C57.9941 8.104 57.5741 8.244 57.2301 8.524C56.8861 8.804 56.6221 9.208 56.4381 9.736C56.2621 10.256 56.1741 10.888 56.1741 11.632C56.1741 12.384 56.2661 13.032 56.4501 13.576C56.6341 14.12 56.8981 14.536 57.2421 14.824C57.5861 15.112 58.0021 15.256 58.4901 15.256ZM63.436 16L69.892 7.36H70.888L64.432 16H63.436ZM69.46 16.12C69.124 16.12 68.808 16.04 68.512 15.88C68.216 15.72 67.976 15.476 67.792 15.148C67.608 14.82 67.516 14.404 67.516 13.9C67.516 13.396 67.604 12.984 67.78 12.664C67.964 12.336 68.204 12.092 68.5 11.932C68.796 11.772 69.116 11.692 69.46 11.692C69.82 11.692 70.148 11.772 70.444 11.932C70.748 12.092 70.988 12.336 71.164 12.664C71.34 12.984 71.428 13.396 71.428 13.9C71.428 14.404 71.336 14.82 71.152 15.148C70.968 15.476 70.724 15.72 70.42 15.88C70.124 16.04 69.804 16.12 69.46 16.12ZM69.46 15.46C69.788 15.46 70.056 15.324 70.264 15.052C70.48 14.78 70.588 14.392 70.588 13.888C70.588 13.392 70.48 13.012 70.264 12.748C70.056 12.484 69.788 12.352 69.46 12.352C69.132 12.352 68.868 12.484 68.668 12.748C68.468 13.004 68.368 13.384 68.368 13.888C68.368 14.4 68.468 14.792 68.668 15.064C68.868 15.328 69.132 15.46 69.46 15.46ZM64.78 11.668C64.436 11.668 64.116 11.588 63.82 11.428C63.524 11.268 63.284 11.024 63.1 10.696C62.924 10.368 62.836 9.952 62.836 9.448C62.836 8.944 62.924 8.532 63.1 8.212C63.284 7.884 63.524 7.64 63.82 7.48C64.116 7.32 64.436 7.24 64.78 7.24C65.14 7.24 65.468 7.32 65.764 7.48C66.06 7.64 66.296 7.884 66.472 8.212C66.648 8.532 66.736 8.944 66.736 9.448C66.736 9.952 66.644 10.368 66.46 10.696C66.276 11.024 66.036 11.268 65.74 11.428C65.444 11.588 65.124 11.668 64.78 11.668ZM64.78 11.008C65.1 11.008 65.364 10.876 65.572 10.612C65.788 10.34 65.896 9.948 65.896 9.436C65.896 8.94 65.792 8.56 65.584 8.296C65.376 8.032 65.108 7.9 64.78 7.9C64.452 7.9 64.184 8.032 63.976 8.296C63.776 8.552 63.676 8.932 63.676 9.436C63.676 9.948 63.776 10.34 63.976 10.612C64.184 10.876 64.452 11.008 64.78 11.008Z" fill="white"/>
</g>
</g>
<defs>
<filter id="filter0_i_14007_2340" x="0" y="0" width="120" height="200" filterUnits="userSpaceOnUse" color-interpolation-filters="sRGB">
<feFlood flood-opacity="0" result="BackgroundImageFix"/>
<feBlend mode="normal" in="SourceGraphic" in2="BackgroundImageFix" result="shape"/>
<feColorMatrix in="SourceAlpha" type="matrix" values="0 0 0 0 0 0 0 0 0 0 0 0 0 0 0 0 0 0 127 0" result="hardAlpha"/>
<feOffset dx="4" dy="4"/>
<feGaussianBlur stdDeviation="7.5"/>
<feComposite in2="hardAlpha" operator="arithmetic" k2="-1" k3="1"/>
<feColorMatrix type="matrix" values="0 0 0 0 1 0 0 0 0 1 0 0 0 0 1 0 0 0 0.3 0"/>
<feBlend mode="normal" in2="shape" result="effect1_innerShadow_14007_2340"/>
</filter>
<filter id="filter1_i_14007_2340" x="27" y="0" width="61" height="23" filterUnits="userSpaceOnUse" color-interpolation-filters="sRGB">
<feFlood flood-opacity="0" result="BackgroundImageFix"/>
<feBlend mode="normal" in="SourceGraphic" in2="BackgroundImageFix" result="shape"/>
<feColorMatrix in="SourceAlpha" type="matrix" values="0 0 0 0 0 0 0 0 0 0 0 0 0 0 0 0 0 0 127 0" result="hardAlpha"/>
<feOffset/>
<feGaussianBlur stdDeviation="4.16399"/>
<feComposite in2="hardAlpha" operator="arithmetic" k2="-1" k3="1"/>
<feColorMatrix type="matrix" values="0 0 0 0 1 0 0 0 0 1 0 0 0 0 1 0 0 0 1 0"/>
<feBlend mode="normal" in2="shape" result="effect1_innerShadow_14007_2340"/>
</filter>
<radialGradient id="paint0_radial_14007_2340" cx="0" cy="0" r="1" gradientTransform="matrix(69.6631 141.543 -167.693 71.4186 30.6709 38.3102)" gradientUnits="userSpaceOnUse">
<stop stop-color="#5949E6"/>
<stop offset="1" stop-color="#E50914"/>
</radialGradient>
</defs>
</svg>
