<svg width="24" height="24" viewBox="0 0 24 24" fill="none" xmlns="http://www.w3.org/2000/svg">
<rect width="24" height="24" rx="6" fill="#E50914"/>
<path d="M20.1632 8.28827L10.1632 18.2883C10.0762 18.3757 9.97266 18.445 9.8587 18.4923C9.74475 18.5397 9.62257 18.564 9.49918 18.564C9.3758 18.564 9.25362 18.5397 9.13967 18.4923C9.02571 18.445 8.92222 18.3757 8.83512 18.2883L4.46012 13.9133C4.37292 13.8261 4.30374 13.7225 4.25655 13.6086C4.20935 13.4947 4.18506 13.3725 4.18506 13.2492C4.18506 13.1259 4.20935 13.0038 4.25655 12.8898C4.30374 12.7759 4.37292 12.6724 4.46012 12.5851C4.54733 12.4979 4.65086 12.4288 4.7648 12.3816C4.87874 12.3344 5.00086 12.3101 5.12418 12.3101C5.24751 12.3101 5.36963 12.3344 5.48357 12.3816C5.59751 12.4288 5.70104 12.4979 5.78825 12.5851L9.49997 16.2969L18.8367 6.96171C19.0128 6.78559 19.2517 6.68665 19.5007 6.68665C19.7498 6.68665 19.9887 6.78559 20.1648 6.96171C20.3409 7.13783 20.4399 7.3767 20.4399 7.62577C20.4399 7.87484 20.3409 8.11371 20.1648 8.28983L20.1632 8.28827Z" fill="white"/>
</svg>
