<svg width="20" height="21" viewBox="0 0 20 21" fill="none" xmlns="http://www.w3.org/2000/svg">
<path d="M7.15722 19.2714V16.2047C7.1572 15.4246 7.79312 14.7908 8.581 14.7856H11.4671C12.2587 14.7856 12.9005 15.4209 12.9005 16.2047V19.2809C12.9003 19.9432 13.4343 20.4845 14.103 20.5H16.0271C17.9451 20.5 19.5 18.9607 19.5 17.0618V8.33784C19.4898 7.59083 19.1355 6.88935 18.538 6.43303L11.9577 1.1853C10.8049 0.271567 9.1662 0.271567 8.0134 1.1853L1.46203 6.44256C0.86226 6.89702 0.50739 7.59967 0.5 8.34736V17.0618C0.5 18.9607 2.05488 20.5 3.97291 20.5H5.89696C6.58235 20.5 7.13797 19.9499 7.13797 19.2714" fill="white"/>
<path d="M7.15722 19.2714V16.2047C7.1572 15.4246 7.79312 14.7908 8.581 14.7856H11.4671C12.2587 14.7856 12.9005 15.4209 12.9005 16.2047V19.2809C12.9003 19.9432 13.4343 20.4845 14.103 20.5H16.0271C17.9451 20.5 19.5 18.9607 19.5 17.0618V8.33784C19.4898 7.59083 19.1355 6.88935 18.538 6.43303L11.9577 1.1853C10.8049 0.271567 9.1662 0.271567 8.0134 1.1853L1.46203 6.44256C0.86226 6.89702 0.50739 7.59967 0.5 8.34736V17.0618C0.5 18.9607 2.05488 20.5 3.97291 20.5H5.89696C6.58235 20.5 7.13797 19.9499 7.13797 19.2714" stroke="white" stroke-linecap="round" stroke-linejoin="round"/>
</svg>
