<svg width="176" height="176" viewBox="0 0 176 176" fill="none" xmlns="http://www.w3.org/2000/svg">
<rect width="176" height="176" rx="32" fill="white" fill-opacity="0.05"/>
<rect x="0.5" y="0.5" width="175" height="175" rx="31.5" stroke="white" stroke-opacity="0.2" stroke-dasharray="4 4"/>
<path fill-rule="evenodd" clip-rule="evenodd" d="M88 77C88.2652 77 88.5196 77.1054 88.7071 77.2929C88.8946 77.4804 89 77.7348 89 78V87H98C98.2652 87 98.5196 87.1054 98.7071 87.2929C98.8946 87.4804 99 87.7348 99 88C99 88.2652 98.8946 88.5196 98.7071 88.7071C98.5196 88.8946 98.2652 89 98 89H89V98C89 98.2652 88.8946 98.5196 88.7071 98.7071C88.5196 98.8946 88.2652 99 88 99C87.7348 99 87.4804 98.8946 87.2929 98.7071C87.1054 98.5196 87 98.2652 87 98V89H78C77.7348 89 77.4804 88.8946 77.2929 88.7071C77.1054 88.5196 77 88.2652 77 88C77 87.7348 77.1054 87.4804 77.2929 87.2929C77.4804 87.1054 77.7348 87 78 87H87V78C87 77.7348 87.1054 77.4804 87.2929 77.2929C87.4804 77.1054 87.7348 77 88 77Z" fill="white"/>
</svg>
